<?xml version="1.0" standalone="no"?>
<!DOCTYPE svg PUBLIC "-//W3C//DTD SVG 20010904//EN"
 "http://www.w3.org/TR/2001/REC-SVG-20010904/DTD/svg10.dtd">
<svg version="1.0" xmlns="http://www.w3.org/2000/svg"
 width="1200.000000pt" height="1200.000000pt" viewBox="0 0 1200.000000 1200.000000"
 preserveAspectRatio="xMidYMid meet">

<g transform="translate(0.000000,1200.000000) scale(0.100000,-0.100000)"
fill="#000000" stroke="none">
<path d="M2540 11190 l0 -810 270 0 270 0 0 270 0 270 250 0 250 0 0 -270 0
-270 270 0 270 0 0 810 0 810 -270 0 -270 0 0 -265 0 -265 -250 0 -250 0 0
265 0 265 -270 0 -270 0 0 -810z"/>
<path d="M4350 11730 l0 -270 240 0 240 0 0 -540 0 -540 270 0 270 0 0 540 0
540 238 2 237 3 3 268 2 267 -750 0 -750 0 0 -270z"/>
<path d="M6080 11190 l0 -810 265 0 265 0 2 399 3 400 184 -285 c101 -156 186
-284 190 -284 3 0 87 126 186 280 99 154 183 280 188 280 4 0 7 -178 7 -395
l0 -395 265 0 265 0 0 810 0 810 -282 -2 -281 -3 -168 -275 c-92 -151 -171
-275 -176 -277 -4 -1 -84 124 -177 277 l-169 280 -284 0 -283 0 0 -810z"/>
<path d="M8170 11190 l0 -810 650 0 650 0 0 270 0 270 -380 0 -380 0 0 540 0
540 -270 0 -270 0 0 -810z"/>
<path d="M1754 9588 c3 -29 177 -1981 387 -4338 210 -2357 382 -4285 383
-4286 0 -1 782 -218 1737 -483 l1735 -481 1735 481 c954 264 1737 484 1740
487 4 4 178 1933 388 4287 210 2354 384 4304 387 4333 l6 52 -4252 0 -4252 0
6 -52z m6906 -1735 c0 -35 -91 -1028 -95 -1040 -3 -10 -420 -13 -2037 -13
l-2034 0 48 -522 c26 -288 47 -533 47 -545 l1 -23 1941 0 1941 0 -6 -47 c-3
-27 -69 -759 -147 -1628 -77 -869 -143 -1583 -147 -1587 -4 -3 -495 -141
-1092 -306 l-1085 -301 -1090 303 -1090 303 -72 804 c-40 442 -72 819 -73 837
l0 32 530 0 530 0 4 -22 c3 -13 21 -203 40 -422 19 -219 39 -402 43 -406 4 -4
271 -78 593 -165 l585 -157 585 157 c322 87 590 163 595 170 6 7 36 309 68
671 32 363 60 669 63 682 l4 22 -1844 0 -1845 0 -5 43 c-4 23 -67 728 -141
1567 -74 839 -137 1544 -140 1568 l-6 42 2665 0 c2516 0 2666 -1 2666 -17z"/>
</g>
</svg>
